HIERARCHY
ROOT Hips
{
	OFFSET	0.00	0.00	0.00
	CHANNELS 6 Xposition Yposition Zposition Zrotation Xrotation Yrotation
	JOINT LeftUpLeg
	{
		OFFSET	 0.126116	-0.014019	-0.065224
		CHANNELS 3 Zrotation Xrotation Yrotation
		JOINT LeftLeg
		{
			OFFSET	 0.000000	 0.000000	 0.569914
			CHANNELS 3 Zrotation Xrotation Yrotation
			JOINT LeftFoot
			{
				OFFSET	 0.000000	 0.000000	 0.544423
				CHANNELS 3 Zrotation Xrotation Yrotation
				JOINT LeftToeBase
				{
					OFFSET	 0.000000	 0.000000	 0.207117
					CHANNELS 3 Zrotation Xrotation Yrotation
					End Site
					{
						OFFSET	 0.000000	 0.000000	 0.207117
					}
				}
			}
		}
	}
	JOINT RightUpLeg
	{
		OFFSET	-0.124023	-0.008373	-0.065224
		CHANNELS 3 Zrotation Xrotation Yrotation
		JOINT RightLeg
		{
			OFFSET	 0.000000	 0.000000	 0.570047
			CHANNELS 3 Zrotation Xrotation Yrotation
			JOINT RightFoot
			{
				OFFSET	 0.000000	 0.000000	 0.544354
				CHANNELS 3 Zrotation Xrotation Yrotation
				JOINT RightToeBase
				{
					OFFSET	 0.000000	 0.000000	 0.207540
					CHANNELS 3 Zrotation Xrotation Yrotation
					End Site
					{
						OFFSET	 0.000000	 0.000000	 0.207540
					}
				}
			}
		}
	}
	JOINT Spine
	{
		OFFSET	 0.000184	-0.007763	 0.117403
		CHANNELS 3 Zrotation Xrotation Yrotation
		JOINT Spine1
		{
			OFFSET	 0.000000	 0.000000	 0.137269
			CHANNELS 3 Zrotation Xrotation Yrotation
			JOINT Spine2
			{
				OFFSET	 0.000000	 0.000000	 0.156879
				CHANNELS 3 Zrotation Xrotation Yrotation
				JOINT LeftShoulder
				{
					OFFSET	 0.080501	-0.002496	 0.160144
					CHANNELS 3 Zrotation Xrotation Yrotation
					JOINT LeftArm
					{
						OFFSET	 0.000000	 0.000000	 0.164363
						CHANNELS 3 Zrotation Xrotation Yrotation
						JOINT LeftForeArm
						{
							OFFSET	 0.000000	 0.000000	 0.364576
							CHANNELS 3 Zrotation Xrotation Yrotation
							JOINT LeftHand
							{
								OFFSET	 0.000000	 0.000000	 0.360812
								CHANNELS 3 Zrotation Xrotation Yrotation
								JOINT LeftHandIndex1
								{
									OFFSET	 0.000000	 0.000000	 0.086006
									CHANNELS 3 Zrotation Xrotation Yrotation
									JOINT LeftHandIndex2
									{
										OFFSET	 0.000000	 0.000000	 0.047236
										CHANNELS 3 Zrotation Xrotation Yrotation
										JOINT LeftHandIndex3
										{
											OFFSET	-0.004284	-0.000551	 0.038166
											CHANNELS 3 Zrotation Xrotation Yrotation
											End Site
											{
												OFFSET	-0.004284	-0.000551	 0.038166
											}
										}
									}
								}
							}
						}
					}
				}
				JOINT Neck
				{
					OFFSET	 0.000000	 0.000000	 0.176489
					CHANNELS 3 Zrotation Xrotation Yrotation
					JOINT Head
					{
						OFFSET	 0.000000	-0.001747	 0.077940
						CHANNELS 3 Zrotation Xrotation Yrotation
						End Site
						{
							OFFSET	 0.000000	-0.001747	 0.077940
						}
					}
				}
				JOINT RightShoulder
				{
					OFFSET	-0.080363	 0.000306	 0.159706
					CHANNELS 3 Zrotation Xrotation Yrotation
					JOINT RightArm
					{
						OFFSET	 0.000000	 0.000000	 0.164196
						CHANNELS 3 Zrotation Xrotation Yrotation
						JOINT RightForeArm
						{
							OFFSET	 0.000000	 0.000000	 0.365611
							CHANNELS 3 Zrotation Xrotation Yrotation
							JOINT RightHand
							{
								OFFSET	 0.000000	 0.000000	 0.360648
								CHANNELS 3 Zrotation Xrotation Yrotation
								JOINT RightHandIndex1
								{
									OFFSET	 0.000000	 0.000000	 0.069977
									CHANNELS 3 Zrotation Xrotation Yrotation
									JOINT RightHandIndex2
									{
										OFFSET	 0.000000	 0.000000	 0.052305
										CHANNELS 3 Zrotation Xrotation Yrotation
										JOINT RightHandIndex3
										{
											OFFSET	 0.009002	-0.000782	 0.042196
											CHANNELS 3 Zrotation Xrotation Yrotation
											End Site
											{
												OFFSET	 0.009002	-0.000782	 0.042196
											}
										}
									}
								}
							}
						}
					}
				}
			}
		}
	}
}
MOTION
Frames:    11
Frame Time: 0.03333334
 0.012216	 0.064815	 1.201990	 4.115607	-1.821184	-3.602380	 18.713980	-10.452610	-175.179800	 0.311452	-39.155440	-0.032297	 59.246070	 82.249340	-62.588680	-2.371293	 31.295470	-0.062706	-21.278270	-30.656680	-174.478800	 10.164190	-52.938880	 8.736810	 5.520658	 70.549450	 0.957625	 2.357859	 33.162850	 0.107011	 0.810386	 8.938231	 1.035234	 1.446420	 3.282083	 2.833561	-7.829061	-2.770017	-3.688270	-93.771740	 58.848010	 175.757300	 9.920776	 27.432730	-44.593480	-0.736159	-0.049860	-0.595185	 0.461892	-6.836190	-5.913242	-4.870931	 19.204890	-2.784624	-3.886623	 21.407560	 2.207932	-4.808095	 5.547464	 0.146857	-0.126229	-5.015069	 0.158496	-9.906736	 1.818499	 2.301684	 89.832370	 61.581570	-179.880500	-19.455800	 50.114090	 10.772580	-0.967100	-1.845958	 10.176390	-4.936569	 7.139015	 0.770169	 6.304440	 25.991450	-0.577300	 1.728197	 45.941110	-6.852409	 0.351636	 25.037010	 3.657722
 0.010959	 0.037794	 1.198321	 4.665141	-1.555836	-3.593455	 18.534320	-9.636046	-175.748900	 0.761228	-39.586070	 0.210011	 67.998890	 83.341650	-71.543880	-2.370353	 31.455030	-0.066307	-23.302420	-33.091740	-175.786000	 10.222390	-50.605400	 8.527420	 2.911533	 72.086190	 3.667998	 2.358422	 33.080860	 0.105100	-3.445411	 8.813007	 0.984193	 1.367500	 3.344039	 2.826126	-7.917439	-2.886856	-3.671752	-93.873880	 58.906550	 175.533000	 8.961020	 25.665070	-44.712000	-3.579188	 0.022712	-1.536936	 0.343671	-6.857250	-6.856678	-4.870485	 19.226060	-2.788068	-3.882166	 21.464600	 2.203403	-4.807070	 5.559535	 0.146149	-0.095800	-5.051366	 0.174011	-9.882466	 1.797593	 2.170383	 89.800350	 61.621350	-179.956500	-19.440110	 51.047280	 8.632080	 1.136516	-1.707175	 13.110760	-4.518736	 7.548616	 0.597382	 6.297425	 25.267710	-0.555144	 1.829185	 45.151890	-6.942855	 0.465571	 24.541830	 3.599151
 0.009148	-0.002098	 1.193619	 5.264210	-1.211033	-3.597779	 18.066570	-8.092370	-176.636100	 1.065340	-39.612100	 0.454374	 83.258670	 84.567540	-86.931750	-2.369322	 31.628400	-0.070223	-25.697110	-35.445740	-177.853800	 9.837403	-45.344720	 7.579550	-2.109196	 71.515560	 8.946765	 2.358925	 33.007000	 0.103383	-7.933674	 8.627215	 0.929325	 1.230087	 3.558714	 2.797139	-8.021718	-3.091564	-3.655858	-93.993380	 58.962150	 175.271500	 7.442936	 23.212660	-44.888250	-6.479959	 0.179963	-2.521173	 0.248075	-6.891366	-7.786142	-4.868989	 19.272920	-2.792913	-3.876539	 21.536620	 2.197682	-4.805787	 5.574697	 0.145263	-0.063103	-5.087347	 0.196715	-9.862963	 1.775047	 2.037257	 89.760510	 61.677930	 179.948400	-19.415860	 52.270870	 6.320946	 3.230484	-1.255520	 15.338780	-4.132333	 8.006859	 0.387190	 6.288542	 24.422120	-0.539442	 1.940187	 44.254810	-7.041802	 0.611388	 23.901540	 3.525351
 0.007346	-0.038844	 1.188886	 5.713482	-0.798383	-3.624839	 17.767490	-6.619653	-177.414900	 1.249973	-39.363280	 0.569101	 100.281500	 85.275900	-103.944100	-2.368546	 31.756720	-0.073138	-27.818680	-36.670990	-179.927500	 9.527806	-39.177120	 6.539862	-6.847543	 70.102530	 13.767830	 2.359006	 32.995010	 0.103101	-11.516900	 8.348304	 0.868242	 1.091091	 3.755072	 2.813431	-8.113291	-3.280838	-3.670089	-94.106190	 58.980400	 175.028600	 6.071638	 21.171080	-44.983620	-8.628768	 0.369498	-3.321198	 0.308547	-6.988062	-8.220233	-4.865031	 19.374400	-2.799572	-3.870157	 21.617980	 2.191206	-4.804348	 5.591608	 0.144269	-0.039914	-5.104270	 0.229929	-9.867492	 1.759033	 1.964478	 89.716660	 61.757180	 179.843400	-19.295500	 53.254280	 4.799149	 4.751665	-0.703400	 15.994110	-3.912162	 8.392179	 0.168936	 6.277417	 23.630200	-0.550530	 2.032964	 43.480120	-7.124113	 0.782365	 23.141450	 3.440547
 0.005361	-0.074400	 1.183251	 6.112115	-0.388077	-3.691389	 17.532770	-5.165355	-178.159800	 1.417246	-39.057560	 0.670802	 120.143600	 85.536560	-123.788700	-2.367641	 31.904650	-0.076502	-29.688500	-37.293710	 178.099800	 9.317679	-32.970650	 5.523297	-10.450560	 69.191190	 17.117670	 2.359364	 32.942330	 0.101882	-14.931020	 8.055441	 0.840581	 0.959420	 3.890171	 2.833600	-8.197845	-3.431315	-3.683543	-94.215480	 58.993530	 174.793500	 4.892761	 19.460290	-45.032760	-10.788440	 0.609989	-4.095418	 0.266730	-7.117798	-8.502582	-4.859980	 19.497800	-2.806555	-3.863113	 21.707650	 2.184047	-4.802041	 5.618715	 0.142684	-0.019809	-5.125697	 0.263132	-9.877078	 1.741883	 1.904096	 89.666980	 61.836540	 179.723600	-19.053840	 54.038210	 3.686391	 6.157706	-0.095806	 15.912250	-3.728439	 8.786966	-0.131359	 6.265000	 22.796100	-0.566884	 2.123065	 42.705410	-7.203674	 0.963844	 22.323630	 3.352587
 0.003116	-0.110674	 1.175423	 6.358966	 0.068027	-3.917598	 17.548840	-3.662791	-178.823000	 1.538220	-38.840130	 0.743554	 141.837700	 85.193030	-145.432300	-2.366134	 32.146860	-0.082025	-31.070860	-38.719530	 176.258700	 9.497511	-28.635710	 4.955580	-12.945250	 68.522420	 19.123620	 2.360816	 32.724770	 0.096847	-18.498080	 7.668783	 0.960723	 0.849962	 4.068542	 2.860055	-8.272008	-3.572045	-3.706300	-94.324820	 58.987470	 174.561400	 3.847115	 18.053120	-45.106020	-13.481940	 0.946079	-4.952445	-0.118562	-7.427429	-8.221942	-4.850117	 19.721450	-2.815626	-3.852650	 21.840460	 2.173422	-4.796097	 5.688829	 0.138570	-0.009269	-5.167273	 0.300221	-9.907651	 1.718090	 1.884710	 89.587780	 61.925780	 179.532000	-18.629490	 54.666670	 2.652703	 7.499106	 0.548457	 15.817480	-3.652280	 9.272528	-0.777841	 6.246020	 21.696870	-0.605456	 2.220994	 41.837330	-7.289734	 1.212985	 21.182660	 3.235379
 0.000802	-0.140971	 1.167142	 6.522505	 0.390837	-4.109093	 17.586670	-2.353788	-179.455600	 1.629542	-38.783280	 0.799860	 157.415200	 84.494690	-160.938100	-2.363974	 32.485200	-0.089781	-31.925660	-41.037100	 174.704200	 9.747006	-27.297070	 4.846962	-15.488280	 70.209480	 21.201850	 2.359849	 32.870180	 0.100212	-21.402840	 7.355535	 1.072607	 0.773144	 4.294515	 2.869737	-8.321159	-3.703093	-3.717654	-94.403270	 58.979710	 174.395500	 3.012582	 17.095810	-45.237520	-15.732240	 1.282898	-5.664148	-0.523620	-7.588754	-7.979644	-4.840723	 19.922520	-2.821084	-3.842344	 21.970810	 2.162942	-4.788317	 5.780338	 0.133193	 0.002036	-5.208412	 0.325348	-9.922099	 1.691815	 1.857630	 89.523820	 61.990130	 179.376500	-18.143350	 55.114270	 1.627861	 8.575810	 1.095112	 16.006550	-3.553288	 9.632440	-1.444106	 6.227381	 20.669830	-0.643758	 2.329149	 40.845710	-7.384223	 1.437688	 20.135700	 3.133296
-0.001652	-0.170712	 1.158412	 6.587845	 0.575973	-4.283006	 17.670630	-0.876032	 179.851100	 1.689352	-38.599140	 0.833974	 169.122000	 83.753200	-172.527400	-2.360350	 33.032830	-0.102429	-32.229580	-43.628030	 173.439200	 9.781248	-27.347410	 4.885019	-19.691220	 74.378880	 24.876780	 2.354895	 33.586070	 0.116905	-24.053460	 7.093867	 1.199297	 0.707735	 4.606096	 2.830971	-8.340979	-3.833305	-3.700390	-94.450780	 58.967580	 174.296200	 2.198075	 16.402120	-45.383040	-17.822460	 1.646641	-6.325918	-1.024011	-7.565026	-7.746877	-4.830249	 20.128860	-2.822201	-3.830281	 22.122840	 2.150688	-4.776278	 5.921651	 0.124860	 0.016710	-5.256887	 0.337478	-9.915599	 1.656581	 1.814308	 89.469830	 62.029660	 179.245100	-17.521440	 55.453870	 0.560427	 9.513042	 1.624697	 16.271510	-3.402971	 9.879363	-2.263004	 6.205842	 19.551100	-0.689054	 2.472373	 39.476860	-7.508417	 1.671998	 19.026080	 3.030604
-0.004576	-0.204818	 1.148874	 6.699957	 0.703178	-4.447934	 17.722340	 0.959723	 179.012500	 1.779748	-38.048460	 0.879633	 178.967000	 83.123250	 177.744900	-2.353875	 33.953640	-0.123959	-32.622120	-46.135430	 172.192300	 10.047640	-27.945300	 5.111093	-25.659320	 78.166490	 30.222580	 2.348015	 34.517380	 0.138949	-26.866250	 6.941978	 1.310195	 0.614784	 4.691185	 2.810165	-8.350111	-3.899926	-3.683819	-94.496640	 58.946300	 174.202100	 1.391805	 15.868340	-45.380150	-19.939700	 2.086061	-7.023380	-1.563057	-7.709115	-7.687624	-4.827615	 20.317690	-2.862964	-3.815514	 22.308180	 2.135694	-4.759454	 6.118746	 0.113189	 0.043171	-5.311975	 0.347757	-9.888077	 1.641291	 1.721168	 89.417180	 62.038850	 179.117500	-16.745300	 55.699310	-0.582986	 10.540310	 2.227225	 16.376480	-3.140687	 10.000560	-3.150235	 6.184757	 18.279470	-0.715008	 2.630991	 37.882850	-7.644588	 1.934116	 17.763690	 2.920403
-0.007262	-0.236954	 1.141355	 6.851301	 0.710202	-4.555742	 17.739460	 2.872305	 178.189000	 1.886617	-37.033630	 0.923981	-173.417300	 83.026610	 170.222000	-2.344404	 35.189080	-0.153439	-33.153580	-47.390400	 171.285600	 10.543990	-28.354370	 5.422015	-30.166970	 80.126250	 34.073880	 2.339991	 35.523960	 0.163208	-29.275600	 6.994712	 1.371445	 0.500606	 4.428930	 2.813589	-8.341206	-3.861286	-3.670017	-94.527760	 58.916840	 174.140500	 0.746084	 15.621790	-45.129860	-21.571050	 2.502321	-7.607449	-2.012045	-8.062428	-7.908968	-4.837338	 20.430110	-2.952330	-3.800614	 22.494240	 2.120556	-4.739899	 6.347067	 0.099588	 0.080327	-5.362295	 0.352583	-9.836501	 1.659577	 1.578565	 89.380320	 62.000080	 179.029800	-15.969510	 55.766140	-1.430054	 11.477430	 2.753674	 15.964840	-2.786124	 9.907493	-3.897899	 6.171145	 17.116680	-0.705329	 2.773614	 36.375190	-7.765716	 2.170196	 16.608120	 2.825497
-0.010490	-0.274605	 1.134014	 7.009934	 0.690687	-4.537465	 17.752590	 5.338370	 177.103800	 2.064333	-35.182040	 0.986388	-162.632700	 83.639580	 159.548800	-2.326935	 37.203200	-0.203049	-33.556180	-47.575530	 170.567400	 10.777060	-28.554740	 5.571796	-33.667640	 81.140080	 37.270130	 2.335901	 36.008670	 0.175068	-31.795730	 7.018271	 1.357150	 0.327327	 3.996642	 2.718818	-8.324293	-3.715364	-3.606699	-94.539870	 58.976200	 174.105000	 0.137617	 15.529040	-44.619960	-23.323940	 2.987923	-8.213449	-2.586775	-8.532751	-8.256106	-4.851740	 20.522890	-3.063583	-3.784937	 22.688960	 2.104633	-4.715556	 6.630371	 0.082584	 0.121895	-5.415111	 0.336025	-9.759470	 1.692168	 1.449027	 89.357800	 61.897800	 178.979200	-15.173690	 55.663350	-1.967452	 12.558800	 3.289133	 14.861250	-2.419064	 9.719574	-4.658628	 6.168108	 15.834640	-0.634201	 2.897037	 35.010280	-7.869439	 2.425667	 15.338290	 2.727566
